<svg width="41" height="40" viewBox="0 0 41 40" fill="none" xmlns="http://www.w3.org/2000/svg">
<path d="M14.4282 31.4971C14.9805 31.4971 15.4282 31.0494 15.4282 30.4971C15.4282 29.9448 14.9805 29.4971 14.4282 29.4971C13.8759 29.4971 13.4282 29.9448 13.4282 30.4971C13.4282 31.0494 13.8759 31.4971 14.4282 31.4971Z" stroke="white" stroke-width="3" stroke-linecap="round" stroke-linejoin="round"/>
<path d="M27.9282 31.4971C28.4805 31.4971 28.9282 31.0494 28.9282 30.4971C28.9282 29.9448 28.4805 29.4971 27.9282 29.4971C27.3759 29.4971 26.9282 29.9448 26.9282 30.4971C26.9282 31.0494 27.3759 31.4971 27.9282 31.4971Z" stroke="#F8F8F8" stroke-width="3" stroke-linecap="round" stroke-linejoin="round"/>
<path d="M7.5 9H9.89521L11.1777 14.7141M11.1766 14.7141H11.1777M11.1777 14.7141L13.0808 23.1938C13.1977 23.7136 13.5008 24.1783 13.938 24.5079C14.3752 24.8374 14.919 25.0113 15.476 24.9994H27.1886C27.7337 24.9986 28.2623 24.8203 28.6869 24.4941C29.1115 24.1679 29.4068 23.7132 29.524 23.2052L31.5 14.7141H11.1777Z" stroke="#F8F8F8" stroke-width="3" stroke-linecap="round" stroke-linejoin="round"/>
</svg>
