<svg width="40" height="40" viewBox="0 0 40 40" fill="none" xmlns="http://www.w3.org/2000/svg">
<path d="M13.9282 31.497C14.4805 31.497 14.9282 31.0493 14.9282 30.497C14.9282 29.9447 14.4805 29.497 13.9282 29.497C13.3759 29.497 12.9282 29.9447 12.9282 30.497C12.9282 31.0493 13.3759 31.497 13.9282 31.497Z" stroke="#F8F8F8" stroke-width="2" stroke-linecap="round" stroke-linejoin="round"/>
<path d="M27.4282 31.497C27.9805 31.497 28.4282 31.0493 28.4282 30.497C28.4282 29.9447 27.9805 29.497 27.4282 29.497C26.8759 29.497 26.4282 29.9447 26.4282 30.497C26.4282 31.0493 26.8759 31.497 27.4282 31.497Z" stroke="#F8F8F8" stroke-width="2" stroke-linecap="round" stroke-linejoin="round"/>
<path d="M7 9H9.39521L10.6777 14.7141M10.6766 14.7141H10.6777M10.6777 14.7141L12.5808 23.1938C12.6977 23.7136 13.0008 24.1783 13.438 24.5079C13.8752 24.8374 14.419 25.0113 14.976 24.9994H26.6886C27.2337 24.9986 27.7623 24.8203 28.1869 24.4941C28.6115 24.1679 28.9068 23.7132 29.024 23.2052L31 14.7141H10.6777Z" stroke="#F8F8F8" stroke-width="2" stroke-linecap="round" stroke-linejoin="round"/>
</svg>
