<svg width="40" height="41" viewBox="0 0 40 41" fill="none" xmlns="http://www.w3.org/2000/svg">
<path d="M33.7862 40.4998H30.8356C30.2091 40.4998 29.701 39.9918 29.701 39.3652C29.701 38.7386 30.2091 38.2306 30.8356 38.2306H33.7862C35.9611 38.2306 37.7307 36.4611 37.7307 34.2861V6.71372C37.7307 4.53881 35.9612 2.76921 33.7862 2.76921H16.7474C16.1208 2.76921 15.6128 2.26124 15.6128 1.6346C15.6128 1.00797 16.1208 0.5 16.7474 0.5H33.7863C37.2124 0.5 40 3.28741 40 6.71372V34.2861C39.9999 37.7124 37.2125 40.4998 33.7862 40.4998ZM22.6323 40.4998H6.21374C2.78742 40.4998 0 37.7124 0 34.2861V6.71372C0 3.28741 2.78742 0.5 6.21374 0.5H8.76717C9.39373 0.5 9.90178 1.00797 9.90178 1.6346C9.90178 2.26124 9.39373 2.76921 8.76717 2.76921H6.21374C4.03882 2.76921 2.26921 4.53873 2.26921 6.71372V34.2861C2.26921 36.461 4.03874 38.2306 6.21374 38.2306H22.6323C23.2589 38.2306 23.7669 38.7386 23.7669 39.3652C23.767 39.9918 23.2589 40.4998 22.6323 40.4998Z" fill="white"/>
<path d="M28.0937 8.47314H11.9063C9.73398 8.47314 7.97296 10.2342 7.97296 12.4065V28.5937C7.97296 30.7661 9.73398 32.5271 11.9063 32.5271H28.0936C30.2659 32.5271 32.0269 30.7661 32.0269 28.5937V12.4064C32.027 10.2341 30.266 8.47314 28.0937 8.47314ZM20.0001 26.3422C16.7736 26.3422 14.1579 23.7266 14.1579 20.5001C14.1579 17.2735 16.7735 14.6579 20.0001 14.6579C23.2266 14.6579 25.8423 17.2735 25.8423 20.5001C25.8423 23.7266 23.2266 26.3422 20.0001 26.3422Z" fill="#3B6E31"/>
<path d="M28.0937 33.6616H11.9065C9.11194 33.6616 6.8385 31.3882 6.8385 28.5936V12.4063C6.8385 9.61189 9.11194 7.33838 11.9065 7.33838H28.0937C30.8882 7.33838 33.1616 9.61181 33.1616 12.4063V28.5936C33.1616 31.388 30.8881 33.6616 28.0937 33.6616ZM11.9065 9.60767C10.3632 9.60767 9.10772 10.8631 9.10772 12.4064V28.5936C9.10772 30.1368 10.3632 31.3924 11.9065 31.3924H28.0937C29.6369 31.3924 30.8924 30.1369 30.8924 28.5936V12.4063C30.8924 10.8631 29.6369 9.60759 28.0937 9.60759L11.9065 9.60767ZM20.0001 27.4768C16.153 27.4768 13.0233 24.347 13.0233 20.5C13.0233 16.653 16.153 13.5232 20.0001 13.5232C23.8471 13.5232 26.9769 16.653 26.9769 20.5C26.9769 24.347 23.8471 27.4768 20.0001 27.4768ZM20.0001 15.7924C17.4043 15.7924 15.2926 17.9041 15.2926 20.5C15.2926 23.0958 17.4043 25.2076 20.0001 25.2076C22.5958 25.2076 24.7076 23.0958 24.7076 20.5C24.7076 17.9041 22.5957 15.7924 20.0001 15.7924Z" fill="white"/>
<path d="M27.0629 14.9491C27.9452 14.9491 28.6605 14.2338 28.6605 13.3515C28.6605 12.4692 27.9452 11.7539 27.0629 11.7539C26.1806 11.7539 25.4653 12.4692 25.4653 13.3515C25.4653 14.2338 26.1806 14.9491 27.0629 14.9491Z" fill="white"/>
</svg>
