<svg width="40" height="40" viewBox="0 0 40 40" fill="none" xmlns="http://www.w3.org/2000/svg">
<path d="M33.7862 40H30.8358C30.2091 40 29.7012 39.492 29.7012 38.8654C29.7012 38.2388 30.2091 37.7308 30.8358 37.7308H33.7862C35.9612 37.7308 37.7308 35.9613 37.7308 33.7862V6.21375C37.7308 4.03883 35.9613 2.26922 33.7862 2.26922H16.7474C16.1208 2.26922 15.6128 1.76125 15.6128 1.13461C15.6128 0.507969 16.1208 0 16.7474 0H33.7862C37.2126 0 40 2.78742 40 6.21375V33.7862C40 37.2126 37.2126 40 33.7862 40ZM22.6323 40H6.21375C2.78742 40 0 37.2126 0 33.7862V6.21375C0 2.78742 2.78742 0 6.21375 0H8.76719C9.39383 0 9.9018 0.507969 9.9018 1.13461C9.9018 1.76125 9.39383 2.26922 8.76719 2.26922H6.21375C4.03883 2.26922 2.26922 4.03875 2.26922 6.21375V33.7862C2.26922 35.9612 4.03875 37.7308 6.21375 37.7308H22.6323C23.2589 37.7308 23.7669 38.2388 23.7669 38.8654C23.7669 39.492 23.2589 40 22.6323 40Z" fill="#3B6E31"/>
</svg>
