<svg width="40" height="40" viewBox="0 0 40 40" fill="none" xmlns="http://www.w3.org/2000/svg">
<g clip-path="url(#clip0_2_407)">
<path d="M33.7862 40H30.8358C30.2091 40 29.7012 39.492 29.7012 38.8654C29.7012 38.2388 30.2091 37.7308 30.8358 37.7308H33.7862C35.9612 37.7308 37.7308 35.9613 37.7308 33.7862V6.21375C37.7308 4.03883 35.9613 2.26922 33.7862 2.26922H16.7474C16.1208 2.26922 15.6128 1.76125 15.6128 1.13461C15.6128 0.507969 16.1208 0 16.7474 0H33.7862C37.2126 0 40 2.78742 40 6.21375V33.7862C40 37.2126 37.2126 40 33.7862 40ZM22.6323 40H6.21375C2.78742 40 0 37.2126 0 33.7862V6.21375C0 2.78742 2.78742 0 6.21375 0H8.76719C9.39383 0 9.9018 0.507969 9.9018 1.13461C9.9018 1.76125 9.39383 2.26922 8.76719 2.26922H6.21375C4.03883 2.26922 2.26922 4.03875 2.26922 6.21375V33.7862C2.26922 35.9612 4.03875 37.7308 6.21375 37.7308H22.6323C23.2589 37.7308 23.7669 38.2388 23.7669 38.8654C23.7669 39.492 23.2589 40 22.6323 40Z" fill="#3B6E31"/>
<path d="M18.6667 29.3333C24.5577 29.3333 29.3333 24.5577 29.3333 18.6667C29.3333 12.7756 24.5577 8 18.6667 8C12.7756 8 8 12.7756 8 18.6667C8 24.5577 12.7756 29.3333 18.6667 29.3333Z" fill="var(--color1)" stroke="#3B6E31" stroke-width="2.5" stroke-linecap="round" stroke-linejoin="round"/>
<path d="M32 31.9999L26.2667 26.2666" stroke="#3B6E31" stroke-width="2.5" stroke-linecap="round" stroke-linejoin="round"/>
</g>
<defs>
<clipPath id="clip0_2_407">
<rect width="40" height="40" fill="white"/>
</clipPath>
</defs>
</svg>
