<svg width="40" height="40" viewBox="0 0 40 40" fill="none" xmlns="http://www.w3.org/2000/svg">
<g clip-path="url(#clip0_2_387)">
<path d="M33.7862 40H30.8358C30.2091 40 29.7012 39.492 29.7012 38.8654C29.7012 38.2388 30.2091 37.7308 30.8358 37.7308H33.7862C35.9612 37.7308 37.7308 35.9613 37.7308 33.7862V6.21375C37.7308 4.03883 35.9613 2.26922 33.7862 2.26922H16.7474C16.1208 2.26922 15.6128 1.76125 15.6128 1.13461C15.6128 0.507969 16.1208 0 16.7474 0H33.7862C37.2126 0 40 2.78742 40 6.21375V33.7862C40 37.2126 37.2126 40 33.7862 40ZM22.6323 40H6.21375C2.78742 40 0 37.2126 0 33.7862V6.21375C0 2.78742 2.78742 0 6.21375 0H8.76719C9.39383 0 9.9018 0.507969 9.9018 1.13461C9.9018 1.76125 9.39383 2.26922 8.76719 2.26922H6.21375C4.03883 2.26922 2.26922 4.03875 2.26922 6.21375V33.7862C2.26922 35.9612 4.03875 37.7308 6.21375 37.7308H22.6323C23.2589 37.7308 23.7669 38.2388 23.7669 38.8654C23.7669 39.492 23.2589 40 22.6323 40Z" fill="#3B6E31"/>
<path d="M31.0229 9.42918L7.89091 18.4436C7.14146 18.7357 7.18708 19.8108 7.95841 20.0383L13.2422 21.5984L14.8846 27.748C15.1136 28.4752 16.035 28.6954 16.5683 28.1509L19.8201 25.0476L26.7165 30.4118C27.4462 30.9474 28.4854 30.5493 28.6708 29.6635L32.6201 10.7815C32.8135 9.85645 31.9036 9.08598 31.0229 9.42918Z" fill="var(--color1)"/>
<path d="M27.4491 31.7886H27.449C26.9425 31.7886 26.457 31.6288 26.0452 31.3265C26.0366 31.3203 26.0283 31.3139 26.02 31.3074L19.8959 26.5438L17.363 28.961C16.958 29.3663 16.4219 29.5892 15.8509 29.5892C14.9084 29.5892 14.0852 28.9863 13.8025 28.089C13.7975 28.073 13.7927 28.057 13.7884 28.0408L12.3105 22.5063L7.63719 21.1265C6.81336 20.8834 6.25727 20.1716 6.22094 19.3133C6.18453 18.4549 6.67844 17.6985 7.47914 17.3865L30.6112 8.37205C30.8812 8.2661 31.1687 8.21163 31.4588 8.21143C32.1591 8.21143 32.8166 8.52627 33.2627 9.07518C33.7041 9.61854 33.8748 10.3252 33.7307 11.0138L29.7812 29.8958C29.5519 30.9925 28.5711 31.7886 27.4491 31.7886ZM27.3947 29.502C27.413 29.5141 27.4298 29.5193 27.4491 29.5193C27.4585 29.5193 27.5421 29.517 27.5602 29.4312L31.5095 10.5492C31.514 10.5279 31.5123 10.5194 31.5015 10.506C31.4897 10.4915 31.4712 10.4805 31.4587 10.4805C31.4505 10.481 31.4426 10.483 31.4351 10.4863L9.0968 19.1913L13.5634 20.5103C13.7499 20.5653 13.9191 20.6674 14.0548 20.8067C14.1905 20.946 14.2882 21.1178 14.3384 21.3057L15.9142 27.2067L19.0367 24.2268C19.2335 24.039 19.4911 23.9282 19.7628 23.9145C20.0344 23.9007 20.302 23.985 20.5166 24.1521L27.3947 29.502Z" fill="#3B6E31"/>
<path d="M17.1623 28.1413C17.1979 28.2566 18.4978 26.6316 18.5116 26.5115L17.9286 23.6571C17.8909 23.4726 17.904 23.2813 17.9664 23.1036C18.0288 22.9259 18.1383 22.7685 18.2831 22.6481L28.9705 13.7673C29.2277 13.5398 28.9289 13.1384 28.6373 13.3191L16.0695 20.9844C15.9241 21.0732 15.8091 21.2042 15.7402 21.36C15.6712 21.5159 15.6515 21.689 15.6837 21.8564L17.1623 28.1413Z" fill="#3B6E31"/>
</g>
<defs>
<clipPath id="clip0_2_387">
<rect width="40" height="40" fill="white"/>
</clipPath>
</defs>
</svg>
