<svg width="40" height="41" viewBox="0 0 40 41" fill="none" xmlns="http://www.w3.org/2000/svg">
<g clip-path="url(#clip0_347_1892)">
<path d="M33.7862 40.4999H30.8356C30.2091 40.4999 29.701 39.9919 29.701 39.3653C29.701 38.7388 30.2091 38.2307 30.8356 38.2307H33.7862C35.9611 38.2307 37.7307 36.4612 37.7307 34.2862V6.71374C37.7307 4.53882 35.9612 2.76921 33.7862 2.76921H16.7474C16.1207 2.76921 15.6128 2.26117 15.6128 1.63461C15.6128 1.00805 16.1207 0.5 16.7474 0.5H33.7863C37.2124 0.5 40 3.28742 40 6.71374V34.2863C39.9999 37.7125 37.2125 40.4999 33.7862 40.4999ZM22.6323 40.4999H6.21374C2.78742 40.4999 0 37.7125 0 34.2862V6.71374C0 3.28742 2.78742 0.5 6.21374 0.5H8.76717C9.39381 0.5 9.90178 1.00805 9.90178 1.63461C9.90178 2.26117 9.39381 2.76921 8.76717 2.76921H6.21374C4.03882 2.76921 2.26921 4.53874 2.26921 6.71374V34.2863C2.26921 36.4613 4.03874 38.2309 6.21374 38.2309H22.6323C23.2589 38.2309 23.7669 38.7389 23.7669 39.3655C23.7669 39.992 23.2589 40.4999 22.6323 40.4999Z" fill="white"/>
<path d="M31.9991 28.3563C31.0778 28.3563 29.9509 28.3304 29.4698 28.3195C29.3248 28.3162 29.2304 28.314 29.2046 28.314C28.4337 28.3105 27.7698 28.0462 27.2315 27.5283C26.7948 27.108 26.372 26.6485 25.9632 26.204C25.7317 25.9526 25.4926 25.6926 25.2512 25.44C25.008 25.1854 24.7789 24.9775 24.5506 24.804C24.2544 24.5783 23.9388 24.4587 23.6387 24.4587C23.1425 24.4587 22.7337 24.7707 22.5175 25.3148C22.269 25.9422 22.0783 27.4744 22.0712 27.5689C22.0406 27.9991 21.7946 28.2203 21.3191 28.2464C21.0073 28.2633 20.7013 28.272 20.4098 28.272C18.5311 28.272 16.9451 27.9116 15.5611 27.1702C14.1616 26.4206 12.9066 25.3227 11.7249 23.8139C10.2319 21.9082 8.88734 19.699 7.36538 16.651C7.29234 16.5047 6.12421 14.0143 6.0121 13.7333C5.98023 13.6025 5.96288 13.389 6.07359 13.3172C6.15788 13.3092 6.41452 13.2956 7.18054 13.2956C8.45788 13.2956 10.3376 13.3343 10.4416 13.3379C10.9679 13.3665 11.2547 13.5736 11.4587 14.0767C12.3503 16.2781 13.4119 18.1347 14.7041 19.7523C14.9 19.9987 15.1559 20.2334 15.4438 20.4307C15.6459 20.5694 15.8627 20.6426 16.0706 20.6426H16.0707C16.4665 20.6426 16.7926 20.3897 16.943 19.9657C17.1158 19.4833 17.2548 18.5955 17.2633 18.1247C17.2859 16.9696 17.2603 16.2162 17.198 15.0601C17.1398 13.991 16.6314 13.3523 15.6456 13.1128C15.9455 12.7885 16.3541 12.7054 16.9781 12.6721C17.3275 12.6533 17.7096 12.644 18.1466 12.644C18.5528 12.644 18.9681 12.6518 19.3698 12.6594C19.6519 12.6647 19.934 12.6699 20.2159 12.6727C20.6812 12.6769 21.0844 12.7176 21.4495 12.7974C21.6715 12.8458 21.9766 12.9718 22.0669 13.5086C22.113 13.781 22.1334 14.0452 22.1275 14.2945C22.1159 14.8059 22.0987 15.3263 22.0821 15.8295C22.0582 16.553 22.0333 17.3012 22.0248 18.0394C22.018 18.6123 22.0668 19.1404 22.1696 19.609C22.3055 20.2244 22.6746 20.5915 23.1572 20.5915C23.3599 20.5915 23.6709 20.5197 24.0007 20.1778C24.5232 19.6352 25.0276 19.0039 25.6364 18.1311C26.4306 16.9918 27.1166 15.6629 27.7954 13.949C28.0232 13.3754 28.0816 13.3351 28.6881 13.3338C29.4841 13.3318 30.28 13.3306 31.0759 13.3306C31.7744 13.3306 32.473 13.3316 33.1715 13.3338C33.4378 13.335 33.6528 13.3625 33.8287 13.4183C33.9491 13.4567 34.0531 13.5125 33.9955 13.7668C33.7828 14.7102 33.2376 15.5342 32.7433 16.2323C32.1427 17.08 31.5109 17.9305 30.9 18.7531C30.5778 19.1858 30.257 19.6196 29.9375 20.0543C29.8205 20.2139 29.7082 20.3919 29.5843 20.6141C29.1313 21.4337 29.2032 22.0086 29.8396 22.6658C30.178 23.0147 30.5297 23.358 30.8698 23.6897C31.3498 24.1583 31.8464 24.6428 32.3019 25.1411C32.8778 25.7722 33.3848 26.4316 33.8085 27.1005C34.0047 27.4103 34.0609 27.7103 33.9623 27.9233C33.8673 28.129 33.6237 28.2694 33.2759 28.3188C33.1759 28.3326 32.8763 28.3563 31.9991 28.3563Z" fill="#3B6E31"/>
<path d="M31.9991 29.491C31.0699 29.491 29.9358 29.4652 29.4517 29.4541C29.3137 29.4509 29.2267 29.4489 29.1981 29.4487C28.1421 29.4439 27.1896 29.0627 26.4448 28.3459C25.9813 27.8997 25.5476 27.4283 25.1282 26.9723L25.1137 26.9564C24.8905 26.7141 24.6598 26.4634 24.4308 26.2237C24.2297 26.0133 24.0442 25.8442 23.864 25.7073C23.7597 25.6277 23.6832 25.6009 23.651 25.5948C23.6352 25.612 23.6041 25.6527 23.5719 25.734C23.418 26.1227 23.2383 27.3105 23.202 27.663C23.1265 28.6635 22.4294 29.322 21.3812 29.3794C21.048 29.3974 20.7214 29.4066 20.4097 29.4066C18.3392 29.4066 16.578 29.0023 15.0251 28.1704C13.484 27.3449 12.1123 26.1488 10.8316 24.5136C9.28991 22.5459 7.90772 20.2773 6.35015 17.158C6.28397 17.0255 5.09061 14.4861 4.95811 14.1537C4.93837 14.1042 4.92213 14.0534 4.90952 14.0017C4.74327 13.3189 4.95249 12.6919 5.45569 12.3654C5.60913 12.2658 5.78438 12.2049 5.96647 12.1877C6.03616 12.181 6.24811 12.1611 7.1803 12.1611C8.4885 12.1611 10.3698 12.2002 10.4812 12.2041C10.4883 12.2044 10.4955 12.2046 10.5026 12.2051C11.4667 12.2573 12.142 12.7434 12.5098 13.6502C13.3598 15.7493 14.3675 17.5135 15.5901 19.0442C15.6827 19.1608 15.8016 19.2775 15.9345 19.3836C16.0373 18.991 16.123 18.4035 16.1284 18.1042C16.1505 16.9827 16.1254 16.2487 16.0647 15.1212C16.03 14.4848 15.8154 14.322 15.3773 14.2155C15.1853 14.1688 15.0088 14.0728 14.8653 13.9369C14.7218 13.801 14.6163 13.63 14.5592 13.4408C14.5021 13.2516 14.4954 13.0508 14.5398 12.8582C14.5842 12.6656 14.6781 12.488 14.8122 12.3428C15.4029 11.704 16.173 11.5793 16.9173 11.5395C17.2872 11.5195 17.6894 11.5098 18.1464 11.5098C18.5655 11.5098 18.9851 11.5176 19.3908 11.5253C19.6698 11.5305 19.9487 11.5358 20.2274 11.5386C20.7699 11.5434 21.2493 11.5928 21.6913 11.6893C22.4958 11.8644 23.0407 12.459 23.1856 13.3206C23.2436 13.6633 23.2691 14.0002 23.2616 14.3215C23.2501 14.829 23.2333 15.3437 23.2167 15.8416L23.2158 15.8673C23.1919 16.5912 23.1674 17.3301 23.1591 18.0528C23.1536 18.5143 23.1892 18.9351 23.2648 19.3052C23.7158 18.8261 24.1644 18.2582 24.7055 17.4823C25.448 16.4172 26.0944 15.1617 26.7401 13.5315C27.1398 12.5252 27.6124 12.2017 28.6855 12.1995C30.1816 12.1957 31.6783 12.1947 33.1747 12.1995C33.5592 12.201 33.885 12.2461 34.1718 12.3372C34.9033 12.5704 35.2766 13.2455 35.1016 14.0179C34.8434 15.1641 34.2266 16.1005 33.6688 16.8884C33.0625 17.7442 32.4287 18.5974 31.8158 19.4227C31.4932 19.8561 31.1718 20.2905 30.8518 20.7259C30.7634 20.8465 30.6751 20.9868 30.5747 21.1671C30.3539 21.5666 30.3823 21.596 30.6541 21.8767C30.982 22.2147 31.3275 22.552 31.6617 22.878C32.1561 23.3606 32.6629 23.8553 33.1389 24.3759C33.7602 25.0566 34.3076 25.7688 34.7667 26.4937C35.173 27.1355 35.2551 27.8301 34.992 28.3995C34.8405 28.7276 34.4366 29.3001 33.4352 29.4424C33.2848 29.4631 32.974 29.491 31.9991 29.491ZM23.6387 23.324C24.1896 23.324 24.7428 23.5238 25.2387 23.9017C25.5139 24.1109 25.7867 24.358 26.0716 24.656C26.3151 24.9109 26.553 25.1693 26.783 25.4194L26.7979 25.4356C27.1948 25.8671 27.6046 26.3127 28.0183 26.7109C28.3437 27.024 28.7334 27.1773 29.2096 27.1795C29.2373 27.1795 29.3393 27.1817 29.4956 27.1854C29.9798 27.1964 31.0955 27.2218 31.9989 27.2218C32.2084 27.2218 32.3809 27.2203 32.5221 27.2182C32.2077 26.7724 31.853 26.3327 31.4633 25.9059C31.0317 25.4338 30.5485 24.962 30.081 24.5058C29.7316 24.1649 29.3748 23.8167 29.0246 23.4555C28.0358 22.4346 27.8941 21.3258 28.5909 20.0652C28.7401 19.7974 28.8766 19.582 29.0219 19.3835C29.3427 18.9462 29.6658 18.5113 29.9888 18.0763C30.5997 17.254 31.2257 16.411 31.8172 15.5763C32.0592 15.2345 32.3148 14.8601 32.5219 14.4666C31.2852 14.4639 30.0474 14.4651 28.8098 14.468C28.1109 16.2168 27.3968 17.5895 26.5669 18.7798C25.9223 19.7041 25.3829 20.378 24.8177 20.9648C24.2108 21.5941 23.5798 21.7261 23.1569 21.7261C22.1352 21.7261 21.3127 20.9911 21.0614 19.8537C20.9398 19.2994 20.8823 18.685 20.89 18.0261C20.8986 17.2791 20.9234 16.528 20.9475 15.8015L20.9486 15.7666C20.9649 15.2745 20.9817 14.7659 20.993 14.2691C20.9956 14.1334 20.9885 13.9976 20.9717 13.863C20.7423 13.8283 20.4896 13.8101 20.2053 13.8076C19.9188 13.8046 19.6333 13.7994 19.348 13.794C18.9273 13.7862 18.4887 13.7777 18.0701 13.779C18.218 14.1407 18.306 14.5488 18.3305 14.9986C18.3943 16.1831 18.4205 16.9562 18.3972 18.147C18.3869 18.717 18.2291 19.7387 18.0106 20.3484C17.6983 21.2284 16.9544 21.7773 16.0702 21.7773C15.6322 21.7773 15.1934 21.6352 14.8015 21.3664C14.4219 21.1063 14.0808 20.7923 13.8154 20.4584C12.4555 18.7559 11.34 16.807 10.4066 14.5027C10.4024 14.4923 10.3981 14.4821 10.3936 14.4719L10.3908 14.4716C10.218 14.4669 8.75225 14.4375 7.57679 14.4315C7.92249 15.1755 8.32358 16.0299 8.38077 16.1458C9.86679 19.1216 11.1737 21.2712 12.6176 23.1143C13.7003 24.4967 14.8382 25.4962 16.0964 26.1702C17.3115 26.8211 18.7223 27.1375 20.4093 27.1375C20.5947 27.1375 20.7869 27.1337 20.9835 27.1262C21.0578 26.568 21.2229 25.5009 21.4622 24.8971C21.8542 23.9116 22.6676 23.324 23.6387 23.324Z" fill="white"/>
</g>
<defs>
<clipPath id="clip0_347_1892">
<rect width="40" height="40" fill="white" transform="translate(0 0.5)"/>
</clipPath>
</defs>
</svg>
