<svg width="40" height="40" viewBox="0 0 40 40" fill="none" xmlns="http://www.w3.org/2000/svg">
<g clip-path="url(#clip0_2_388)">
<path fill-rule="evenodd" clip-rule="evenodd" d="M20.005 32.9791C18.4373 32.9791 16.9073 32.7026 15.4523 32.1567L9.95523 32.9487C9.78202 32.9737 9.60537 32.9582 9.4391 32.9036C9.27284 32.849 9.12147 32.7566 8.99685 32.6337C8.87222 32.5109 8.77772 32.3608 8.72073 32.1954C8.66375 32.0299 8.64582 31.8535 8.66836 31.6799L9.24203 27.2502C7.79414 25.1055 7.03125 22.6105 7.03125 20.0052C7.03125 12.8513 12.8512 7.03125 20.0052 7.03125C27.1591 7.03125 32.9791 12.8513 32.9791 20.0052C32.9791 27.1591 27.1588 32.9791 20.005 32.9791ZM16.0091 29.9387C15.874 29.8842 15.73 29.8566 15.5853 29.8566C15.5311 29.8565 15.477 29.8604 15.4234 29.8682L11.1103 30.4896L11.5486 27.1055C11.5859 26.8179 11.5116 26.527 11.3411 26.2925C10.0059 24.4561 9.30016 22.282 9.30016 20.0051C9.30016 14.1026 14.1023 9.30039 20.0048 9.30039C25.9073 9.30039 30.7095 14.1026 30.7095 20.0051C30.7095 25.9076 25.9073 30.7098 20.0048 30.7098C18.6241 30.7098 17.2797 30.4504 16.0091 29.9387Z" fill="#3B6E31"/>
<path d="M15.5853 29.8566C15.73 29.8566 15.874 29.8842 16.0091 29.9387C17.2797 30.4504 18.6241 30.7098 20.0048 30.7098C25.9073 30.7098 30.7095 25.9076 30.7095 20.0051C30.7095 14.1026 25.9073 9.30039 20.0048 9.30039C14.1023 9.30039 9.30016 14.1026 9.30016 20.0051C9.30016 22.282 10.0059 24.4561 11.3411 26.2925C11.5116 26.527 11.5859 26.8179 11.5486 27.1055L11.1103 30.4896L15.4234 29.8682C15.477 29.8604 15.5311 29.8565 15.5853 29.8566Z" fill="var(--color1)"/>
<path d="M33.7862 40H30.8358C30.2091 40 29.7012 39.492 29.7012 38.8654C29.7012 38.2388 30.2091 37.7308 30.8358 37.7308H33.7862C35.9612 37.7308 37.7308 35.9612 37.7308 33.7862V6.21375C37.7308 4.03883 35.9612 2.26922 33.7862 2.26922H16.7474C16.1208 2.26922 15.6128 1.76125 15.6128 1.13461C15.6128 0.507969 16.1208 0 16.7474 0H33.7862C37.2126 0 40 2.78742 40 6.21375V33.7862C40 37.2126 37.2126 40 33.7862 40ZM22.6323 40H6.21375C2.78742 40 0 37.2126 0 33.7862V6.21375C0 2.78742 2.78742 0 6.21375 0H8.76719C9.39383 0 9.9018 0.507969 9.9018 1.13461C9.9018 1.76125 9.39383 2.26922 8.76719 2.26922H6.21375C4.03883 2.26922 2.26922 4.03875 2.26922 6.21375V33.7862C2.26922 35.9612 4.03875 37.7308 6.21375 37.7308H22.6323C23.2589 37.7308 23.7669 38.2388 23.7669 38.8654C23.7669 39.492 23.2589 40 22.6323 40Z" fill="#3B6E31"/>
<path d="M22.5309 21.8806L21.7699 22.6414C21.7048 22.6059 21.6345 22.5707 21.5635 22.5308C20.9103 22.1685 20.1038 21.7623 19.1631 20.8217C18.2204 19.8788 17.8108 19.0718 17.4488 18.4186C17.4098 18.3499 17.3939 18.305 17.3584 18.2408L18.0723 17.5699L18.1462 17.4959C18.7117 16.9304 18.7117 16.0134 18.1462 15.4479L17.0309 14.3326C16.4623 13.7639 15.5391 13.7675 14.9749 14.3408L14.6777 14.6427C14.4841 14.8903 14.3199 15.1783 14.1996 15.4854C14.0884 15.7787 14.0174 16.0595 13.9866 16.3391C13.7149 18.5847 14.2578 20.1542 17.042 22.9395C20.8917 26.7881 23.4909 26.0381 23.625 26.0231C23.916 25.9888 24.2153 25.8965 24.4995 25.7866C24.8043 25.6674 25.0948 25.5008 25.3411 25.3072L25.6432 25.0102C26.2169 24.446 26.2209 23.5224 25.6518 22.9535L24.5789 21.8806C24.0134 21.3151 23.0966 21.3151 22.5309 21.8806Z" fill="#CFF09E"/>
<path d="M22.9359 27.2262C21.4709 27.2262 19.1204 26.6217 16.2397 23.742C13.3793 20.8803 12.5259 18.9788 12.8594 16.2085C12.9009 15.8376 12.9922 15.4695 13.1387 15.0832L13.1431 15.0717C13.3037 14.6615 13.5194 14.282 13.784 13.9438C13.8104 13.9099 13.8387 13.8776 13.8691 13.8469L14.1663 13.5449C14.6557 13.0477 15.3094 12.7739 16.007 12.7739C16.6969 12.7739 17.3455 13.0426 17.8333 13.5304L18.9486 14.6457C19.4363 15.1335 19.7051 15.7821 19.7051 16.472C19.7051 17.162 19.4364 17.8105 18.9486 18.2984L18.8748 18.3722C18.8665 18.3805 18.858 18.3887 18.8494 18.3966L18.7755 18.4661C19.0482 18.9337 19.3948 19.4484 19.9658 20.0194C20.5615 20.6151 21.0792 20.955 21.5705 21.2365L21.7288 21.0781C22.2166 20.5904 22.8652 20.3217 23.555 20.3217C24.2448 20.3217 24.8934 20.5903 25.3812 21.0781L26.4543 22.1512C26.945 22.6419 27.2137 23.2945 27.2108 23.9884C27.2078 24.6823 26.9337 25.3326 26.4387 25.8191L26.1367 26.1161C26.1068 26.1455 26.0752 26.1733 26.0422 26.1993C25.7067 26.4629 25.3162 26.6856 24.9126 26.8433C24.5015 27.0024 24.1377 27.1007 23.7985 27.1449C23.6753 27.1695 23.3753 27.2262 22.9359 27.2262ZM15.2583 15.8936C15.1811 16.0984 15.1341 16.2849 15.1143 16.4633L15.113 16.4752C14.8944 18.2824 15.2369 19.5288 17.8444 22.1374C20.2983 24.5905 22.0877 24.9569 22.9359 24.9569C23.1666 24.9569 23.3072 24.9288 23.3672 24.917C23.4108 24.9079 23.4548 24.9008 23.4991 24.8956C23.6486 24.878 23.8498 24.8215 24.09 24.7285C24.2699 24.6574 24.4399 24.5635 24.5958 24.4489L24.8477 24.2013C24.8774 24.1725 24.9011 24.1379 24.9172 24.0997C24.9333 24.0615 24.9416 24.0205 24.9414 23.979C24.9419 23.9376 24.934 23.8965 24.9182 23.8581C24.9024 23.8198 24.8791 23.7851 24.8495 23.756L23.7766 22.683C23.7477 22.6536 23.7132 22.6304 23.6751 22.6146C23.637 22.5988 23.5961 22.5909 23.5549 22.5912C23.4957 22.5912 23.4091 22.6072 23.3332 22.683L22.5722 23.4438C22.399 23.617 22.1745 23.7295 21.9322 23.7645C21.6898 23.7995 21.4426 23.7552 21.2276 23.6381L21.1599 23.6021C21.1088 23.5755 21.0582 23.5482 21.0079 23.5201L20.8566 23.4368C20.2166 23.0851 19.3401 22.6033 18.3607 21.624C17.3739 20.6369 16.8898 19.7564 16.5362 19.1135L16.4582 18.9719C16.4288 18.9195 16.4014 18.866 16.3759 18.8116L16.3645 18.7881C16.2426 18.5676 16.1977 18.3127 16.237 18.0638C16.2762 17.8149 16.3974 17.5862 16.5812 17.4139L17.3437 16.6935C17.4197 16.6176 17.4356 16.531 17.4356 16.4718C17.4356 16.4126 17.4196 16.326 17.3437 16.2501L16.2284 15.1348C16.1995 15.1054 16.165 15.0821 16.1269 15.0664C16.0888 15.0506 16.0479 15.0426 16.0067 15.043C15.9651 15.0427 15.9238 15.0508 15.8854 15.0669C15.8469 15.083 15.8122 15.1067 15.7832 15.1366L15.5364 15.3872C15.4225 15.5435 15.3291 15.7137 15.2583 15.8936Z" fill="#3B6E31"/>
</g>
<defs>
<clipPath id="clip0_2_388">
<rect width="40" height="40" fill="white"/>
</clipPath>
</defs>
</svg>
