<svg width="40" height="41" viewBox="0 0 40 41" fill="none" xmlns="http://www.w3.org/2000/svg">
<path d="M33.7862 40.4998H30.8356C30.2091 40.4998 29.701 39.9918 29.701 39.3652C29.701 38.7386 30.2091 38.2306 30.8356 38.2306H33.7862C35.9611 38.2306 37.7307 36.4611 37.7307 34.2861V6.71372C37.7307 4.53881 35.9612 2.76921 33.7862 2.76921H16.7474C16.1208 2.76921 15.6128 2.26124 15.6128 1.6346C15.6128 1.00797 16.1208 0.5 16.7474 0.5H33.7863C37.2124 0.5 40 3.28741 40 6.71372V34.2861C39.9999 37.7124 37.2125 40.4998 33.7862 40.4998ZM22.6323 40.4998H6.21374C2.78742 40.4998 0 37.7124 0 34.2861V6.71372C0 3.28741 2.78742 0.5 6.21374 0.5H8.76717C9.39381 0.5 9.90178 1.00797 9.90178 1.6346C9.90178 2.26124 9.39381 2.76921 8.76717 2.76921H6.21374C4.03882 2.76921 2.26921 4.53873 2.26921 6.71372V34.2861C2.26921 36.461 4.03874 38.2306 6.21374 38.2306H22.6323C23.2589 38.2306 23.7669 38.7386 23.7669 39.3652C23.767 39.9918 23.2589 40.4998 22.6323 40.4998Z" fill="white"/>
<path d="M29.2123 33.1161H10.7876C8.98257 33.1161 7.51929 31.6528 7.51929 29.8477V23.3372C7.51929 21.5321 8.98257 20.0688 10.7876 20.0688H29.2124C31.0175 20.0688 32.4808 21.5321 32.4808 23.3372V29.8477C32.4808 31.6527 31.0174 33.1161 29.2123 33.1161Z" fill="white"/>
<path d="M29.2124 34.2507H10.7877C8.35978 34.2507 6.3847 32.2756 6.3847 29.8478V23.3372C6.3847 20.9094 8.35986 18.9343 10.7877 18.9343H29.2124C31.6403 18.9343 33.6156 20.9094 33.6156 23.3372V29.8478C33.6155 32.2756 31.6403 34.2507 29.2124 34.2507ZM10.7877 21.2034C9.61111 21.2034 8.65392 22.1607 8.65392 23.3372V29.8477C8.65392 31.0243 9.61119 31.9814 10.7877 31.9814H29.2124C30.389 31.9814 31.3463 31.0242 31.3463 29.8477V23.3372C31.3463 22.1606 30.3891 21.2034 29.2124 21.2034H10.7877ZM14.2923 17.3434V14.0721C14.2923 13.832 14.2586 13.645 14.1586 13.3309L12.5394 7.88674H14.5921C14.5921 7.88674 15.3753 11.4011 15.5584 11.4011C15.7385 11.4011 16.5076 7.8833 16.5076 7.8833L18.497 7.88635L16.8106 13.3059C16.7503 13.5173 16.6775 13.9227 16.6775 14.0988V17.3434H14.2923ZM20.5715 17.4856C19.2813 17.4856 18.4146 16.7048 18.4146 15.5426V11.6793C18.4146 10.5252 19.2815 9.7497 20.5715 9.7497C21.8819 9.7497 22.7284 10.5334 22.7284 11.7463V15.5426C22.7284 16.7048 21.8617 17.4856 20.5715 17.4856ZM20.5715 11.604C20.3585 11.604 20.2155 11.7685 20.2155 12.0136V15.1949C20.2155 15.497 20.3994 15.6045 20.5715 15.6045C20.7436 15.6045 20.9275 15.497 20.9275 15.1949V12.0136C20.9275 11.7763 20.7778 11.604 20.5715 11.604ZM25.9831 17.4856L25.7401 17.1131C25.7336 17.1029 25.7247 17.0944 25.7143 17.0883C25.7039 17.0821 25.6922 17.0784 25.6801 17.0776C25.6681 17.0768 25.656 17.0788 25.6448 17.0834C25.6337 17.0881 25.6237 17.0953 25.6159 17.1045C25.4998 17.2398 25.2035 17.4856 24.5818 17.4856C24.1192 17.4856 23.4676 17.0984 23.4676 16.2377V9.7497H25.0813V14.8208C25.0813 15.1022 25.2659 15.2304 25.4373 15.2304C25.6016 15.2304 25.7933 15.123 25.7933 14.8208V9.7497H27.4605V17.4856H25.9831Z" fill="white"/>
<path d="M12.6098 30.7688V24.5471L12.6043 24.3783H11.1396L11.1404 22.5915H15.8257L15.8197 24.3783H14.3453L14.35 24.5703V30.7688H12.6098ZM18.8427 30.9111L18.6387 30.6119C18.6067 30.565 18.5392 30.5627 18.5039 30.607C18.4075 30.728 18.1689 30.9111 17.6082 30.9111C17.2121 30.9111 16.6542 30.579 16.6542 29.8405V24.1986H18.0257V28.6043C18.0257 28.8624 18.1961 28.9798 18.3544 28.9798C18.5182 28.9798 18.6832 28.8637 18.6832 28.6043V24.1986H20.1014V30.9111H18.8427ZM23.322 30.9111C22.7758 30.9111 22.6498 30.7357 22.5496 30.657C22.5369 30.6473 22.521 30.6425 22.505 30.6438C22.4891 30.645 22.4741 30.652 22.463 30.6636L22.2234 30.9111H20.8521V22.2744H22.2935V24.2896C22.2935 24.4515 22.3853 24.5252 22.4707 24.5252C22.5529 24.5252 22.6019 24.4762 22.6763 24.4018C22.815 24.2632 22.9942 24.1986 23.2404 24.1986C23.5974 24.1986 24.4277 24.403 24.4277 26.2954V28.7326C24.4275 30.1781 24.0556 30.9111 23.322 30.9111ZM22.4257 29.3097C22.4845 29.3797 22.5818 29.4113 22.6572 29.4113C22.7455 29.4113 22.951 29.3759 22.951 29.0475V26.1204C22.951 25.9029 22.833 25.7567 22.6572 25.7567C22.4497 25.7567 22.2933 25.9481 22.2933 26.202V28.9891C22.2934 29.1248 22.3378 29.2324 22.4257 29.3097ZM26.867 30.9111C25.7293 30.9111 25.05 30.136 25.05 28.8376V25.9455C25.05 24.6561 26.0539 24.1986 26.9136 24.1986C28.2421 24.1986 28.8471 25.2432 28.8471 26.2139V27.1149H26.7214L26.7247 27.1235V28.9543C26.7247 29.2483 26.8946 29.3531 27.0536 29.3531C27.2129 29.3531 27.3822 29.2174 27.3822 28.966V28.424L28.86 28.4204L28.8236 29.1176C28.8239 30.5999 27.7598 30.9111 26.867 30.9111ZM27.0421 25.3717C26.8841 25.3717 26.7248 25.4914 26.7248 25.7588V26.3418C26.7248 26.4524 26.8199 26.5424 26.937 26.5424C27.2242 26.5424 27.3823 26.5424 27.3823 26.3418C27.3825 25.6163 27.3825 25.3717 27.0421 25.3717Z" fill="#3B6E31"/>
</svg>
