<svg width="185" height="220" viewBox="0 0 185 220" fill="none" xmlns="http://www.w3.org/2000/svg">
<path d="M43.6517 1.21681C43.6517 0.544786 43.1069 0 42.4349 0H20.7865C9.30644 0 0 8.71657 0 19.469V200.531C0 211.283 9.30644 220 20.7865 220H109.991C110.663 220 111.208 219.455 111.208 218.783C111.208 218.111 110.663 217.566 109.991 217.566H20.7865C10.7414 217.566 2.59831 209.939 2.59831 200.531V19.469C2.59831 10.0606 10.7415 2.43363 20.7865 2.43363H42.4349C43.1069 2.43363 43.6517 1.88884 43.6517 1.21681Z" fill="#3B6E31"/>
<path d="M78.9888 1.21681C78.9888 1.88884 79.5335 2.43363 80.2056 2.43363H164.213C174.259 2.43363 182.402 10.0606 182.402 19.469V200.531C182.402 209.939 174.259 217.566 164.213 217.566H147.762C147.09 217.566 146.545 218.111 146.545 218.783C146.545 219.455 147.09 220 147.762 220H164.213C175.694 220 185 211.283 185 200.531V19.469C185 8.71658 175.694 0 164.213 0H80.2056C79.5335 0 78.9888 0.544786 78.9888 1.21681Z" fill="#3B6E31"/>
</svg>
