<svg width="290" height="290" viewBox="0 0 290 290" fill="none" xmlns="http://www.w3.org/2000/svg">
<path d="M68.427 1.60398C68.427 0.718127 67.7088 0 66.823 0H32.5843C14.5885 0 0 11.49 0 25.6637V264.336C0 278.51 14.5885 290 32.5843 290H172.722C173.608 290 174.326 289.282 174.326 288.396C174.326 287.51 173.608 286.792 172.722 286.792H32.5843C16.8379 286.792 4.07303 276.738 4.07303 264.336V25.6637C4.07303 13.2617 16.8379 3.20796 32.5843 3.20796H66.823C67.7088 3.20796 68.427 2.48984 68.427 1.60398Z" fill="#3B6E31"/>
<path d="M123.82 1.60398C123.82 2.48984 124.538 3.20796 125.424 3.20796H257.416C273.162 3.20796 285.927 13.2617 285.927 25.6637V264.336C285.927 276.738 273.162 286.792 257.416 286.792H231.323C230.437 286.792 229.719 287.51 229.719 288.396C229.719 289.282 230.437 290 231.323 290H257.416C275.412 290 290 278.51 290 264.336V25.6637C290 11.49 275.412 0 257.416 0H125.424C124.538 0 123.82 0.718127 123.82 1.60398Z" fill="#3B6E31"/>
</svg>
