<svg width="229" height="53" viewBox="0 0 229 53" fill="none" xmlns="http://www.w3.org/2000/svg">
<path d="M7.85874 47H6.99474V42.464L2.99874 47H2.47074V41H3.34674V45.536L7.34274 41H7.85874V47ZM14.8639 47H13.9879V44.396H10.3039V47H9.42792V41H10.3039V43.556H13.9879V41H14.8639V47ZM18.82 41.828V47H17.944V41.828H15.748V41H21.016V41.828H18.82ZM24.6006 40.916C25.2486 40.916 25.8046 41.072 26.2686 41.384C26.7326 41.696 27.0766 42.124 27.3006 42.668C27.3966 42.9 27.4526 43.168 27.4686 43.472C27.4926 43.776 27.4726 44.02 27.4086 44.204H22.4406C22.4406 44.836 22.6486 45.34 23.0646 45.716C23.4886 46.084 24.0326 46.272 24.6966 46.28C25.4566 46.28 26.1486 46.064 26.7726 45.632L27.2406 46.16C26.4646 46.768 25.6166 47.072 24.6966 47.072C23.7686 47.064 23.0126 46.776 22.4286 46.208C21.8446 45.64 21.5526 44.904 21.5526 44C21.5526 43.128 21.8326 42.396 22.3926 41.804C22.9606 41.212 23.6966 40.916 24.6006 40.916ZM24.6006 41.72C24.0086 41.72 23.5126 41.904 23.1126 42.272C22.7206 42.64 22.5086 43.088 22.4766 43.616H26.6166C26.6326 43.408 26.5886 43.18 26.4846 42.932C26.3326 42.564 26.0926 42.272 25.7646 42.056C25.4366 41.832 25.0486 41.72 24.6006 41.72ZM32.1899 40.916C33.0379 40.916 33.7499 41.216 34.3259 41.816C34.9019 42.416 35.1899 43.144 35.1899 44C35.1899 44.856 34.9019 45.584 34.3259 46.184C33.7499 46.776 33.0379 47.072 32.1899 47.072C31.7099 47.072 31.2699 46.956 30.8699 46.724C30.4779 46.484 30.1779 46.168 29.9699 45.776V49.208H29.0939V41H29.7179L29.7539 42.356C29.9859 41.924 30.3179 41.576 30.7499 41.312C31.1819 41.048 31.6619 40.916 32.1899 40.916ZM32.1179 41.756C31.5099 41.756 30.9899 41.972 30.5579 42.404C30.1259 42.828 29.9099 43.36 29.9099 44C29.9099 44.64 30.1259 45.176 30.5579 45.608C30.9899 46.032 31.5099 46.244 32.1179 46.244C32.7179 46.244 33.2339 46.032 33.6659 45.608C34.0979 45.176 34.3139 44.64 34.3139 44C34.3139 43.36 34.0979 42.828 33.6659 42.404C33.2339 41.972 32.7179 41.756 32.1179 41.756ZM41.8372 47H40.9612V44.396H37.2772V47H36.4012V41H37.2772V43.556H40.9612V41H41.8372V47ZM46.0933 40.916C46.7413 40.916 47.2973 41.072 47.7613 41.384C48.2253 41.696 48.5693 42.124 48.7933 42.668C48.8893 42.9 48.9453 43.168 48.9613 43.472C48.9853 43.776 48.9653 44.02 48.9013 44.204H43.9333C43.9333 44.836 44.1413 45.34 44.5573 45.716C44.9813 46.084 45.5253 46.272 46.1893 46.28C46.9493 46.28 47.6413 46.064 48.2653 45.632L48.7333 46.16C47.9573 46.768 47.1093 47.072 46.1893 47.072C45.2613 47.064 44.5053 46.776 43.9213 46.208C43.3373 45.64 43.0453 44.904 43.0453 44C43.0453 43.128 43.3253 42.396 43.8853 41.804C44.4533 41.212 45.1893 40.916 46.0933 40.916ZM46.0933 41.72C45.5013 41.72 45.0053 41.904 44.6053 42.272C44.2133 42.64 44.0013 43.088 43.9693 43.616H48.1093C48.1253 43.408 48.0813 43.18 47.9773 42.932C47.8253 42.564 47.5853 42.272 47.2573 42.056C46.9293 41.832 46.5413 41.72 46.0933 41.72ZM52.4458 41.828V47H51.5698V41.828H49.3738V41H54.6418V41.828H52.4458ZM58.1544 43.832H55.1784V43.244H58.1544V43.832ZM65.5347 47H64.6587V42.464L62.4507 44.972L60.2427 42.464V47H59.3667V41H59.8947L62.4507 43.904L65.0067 41H65.5347V47ZM72.8333 47H72.2093L72.1733 45.644C71.9413 46.076 71.6093 46.424 71.1773 46.688C70.7453 46.944 70.2653 47.072 69.7373 47.072C68.8893 47.072 68.1773 46.776 67.6013 46.184C67.0253 45.584 66.7373 44.856 66.7373 44C66.7373 43.144 67.0253 42.416 67.6013 41.816C68.1773 41.216 68.8893 40.916 69.7373 40.916C70.2573 40.916 70.7333 41.048 71.1653 41.312C71.6053 41.568 71.9413 41.912 72.1733 42.344L72.2093 41H72.8333V47ZM68.2373 45.596C68.6693 46.02 69.1893 46.232 69.7973 46.232C70.4053 46.232 70.9253 46.02 71.3573 45.596C71.7893 45.172 72.0053 44.64 72.0053 44C72.0053 43.36 71.7893 42.828 71.3573 42.404C70.9253 41.972 70.4053 41.756 69.7973 41.756C69.1973 41.756 68.6813 41.972 68.2493 42.404C67.8173 42.828 67.6013 43.36 67.6013 44C67.6013 44.64 67.8133 45.172 68.2373 45.596ZM75.282 41.828V47H74.406V41H79.026V41.828H75.282ZM85.611 47H84.987L84.951 45.644C84.719 46.076 84.387 46.424 83.955 46.688C83.523 46.944 83.043 47.072 82.515 47.072C81.667 47.072 80.955 46.776 80.379 46.184C79.803 45.584 79.515 44.856 79.515 44C79.515 43.144 79.803 42.416 80.379 41.816C80.955 41.216 81.667 40.916 82.515 40.916C83.035 40.916 83.511 41.048 83.943 41.312C84.383 41.568 84.719 41.912 84.951 42.344L84.987 41H85.611V47ZM81.015 45.596C81.447 46.02 81.967 46.232 82.575 46.232C83.183 46.232 83.703 46.02 84.135 45.596C84.567 45.172 84.783 44.64 84.783 44C84.783 43.36 84.567 42.828 84.135 42.404C83.703 41.972 83.183 41.756 82.575 41.756C81.975 41.756 81.459 41.972 81.027 42.404C80.595 42.828 80.379 43.36 80.379 44C80.379 44.64 80.591 45.172 81.015 45.596ZM90.7257 43.856C91.5097 44.04 91.9017 44.52 91.9017 45.296C91.9017 45.872 91.6777 46.316 91.2297 46.628C90.7817 46.932 90.1977 47.084 89.4777 47.084H89.2737C88.7057 47.084 88.1777 46.968 87.6897 46.736C87.2097 46.496 86.8737 46.212 86.6817 45.884L87.1737 45.356C87.3657 45.628 87.6497 45.852 88.0257 46.028C88.4097 46.204 88.8217 46.292 89.2617 46.292H89.4537C89.9177 46.292 90.2937 46.2 90.5817 46.016C90.8777 45.824 91.0257 45.548 91.0257 45.188C91.0257 44.524 90.5977 44.188 89.7417 44.18L88.6857 44.168V43.604H89.6577C90.3857 43.604 90.7497 43.3 90.7497 42.692C90.7497 42.38 90.6177 42.14 90.3537 41.972C90.0977 41.796 89.7737 41.708 89.3817 41.708H89.2377C88.4617 41.708 87.8377 41.984 87.3657 42.536L86.8857 42.02C87.1417 41.7 87.4857 41.436 87.9177 41.228C88.3577 41.02 88.8177 40.916 89.2977 40.916H89.4537C90.0697 40.916 90.5857 41.06 91.0017 41.348C91.4177 41.636 91.6257 42.028 91.6257 42.524C91.6257 43.204 91.3257 43.648 90.7257 43.856ZM98.5562 47H97.6922V42.464L93.6962 47H93.1682V41H94.0442V45.536L98.0402 41H98.5562V47ZM105.561 47H104.685V44.396H101.001V47H100.125V41H101.001V43.556H104.685V41H105.561V47ZM114.754 47L113.77 45.488C113.466 45.016 113.218 44.704 113.026 44.552C112.842 44.4 112.546 44.324 112.138 44.324H111.226V47H110.35V41H111.226V43.484H112.006C112.414 43.484 112.71 43.408 112.894 43.256C113.086 43.104 113.334 42.792 113.638 42.32L114.502 41H115.486L114.358 42.704C114.126 43.056 113.93 43.32 113.77 43.496C113.618 43.672 113.454 43.8 113.278 43.88C113.494 43.944 113.686 44.068 113.854 44.252C114.03 44.436 114.242 44.72 114.49 45.104L115.726 47H114.754ZM119.244 40.916C120.1 40.916 120.828 41.22 121.428 41.828C122.028 42.428 122.328 43.152 122.328 44C122.328 44.848 122.028 45.572 121.428 46.172C120.828 46.772 120.1 47.072 119.244 47.072C118.388 47.072 117.66 46.772 117.06 46.172C116.468 45.572 116.172 44.848 116.172 44C116.172 43.144 116.472 42.416 117.072 41.816C117.672 41.216 118.396 40.916 119.244 40.916ZM119.232 41.756C118.632 41.756 118.116 41.972 117.684 42.404C117.252 42.828 117.036 43.36 117.036 44C117.036 44.64 117.248 45.172 117.672 45.596C118.104 46.02 118.624 46.232 119.232 46.232C119.84 46.232 120.36 46.02 120.792 45.596C121.224 45.172 121.44 44.64 121.44 44C121.44 43.36 121.224 42.828 120.792 42.404C120.36 41.972 119.84 41.756 119.232 41.756ZM129.692 47H128.816V42.464L126.608 44.972L124.4 42.464V47H123.524V41H124.052L126.608 43.904L129.164 41H129.692V47ZM136.691 47H135.815V44.396H132.131V47H131.255V41H132.131V43.556H135.815V41H136.691V47ZM143.995 47H143.371L143.335 45.644C143.103 46.076 142.771 46.424 142.339 46.688C141.907 46.944 141.427 47.072 140.899 47.072C140.051 47.072 139.339 46.776 138.763 46.184C138.187 45.584 137.899 44.856 137.899 44C137.899 43.144 138.187 42.416 138.763 41.816C139.339 41.216 140.051 40.916 140.899 40.916C141.419 40.916 141.895 41.048 142.327 41.312C142.767 41.568 143.103 41.912 143.335 42.344L143.371 41H143.995V47ZM139.399 45.596C139.831 46.02 140.351 46.232 140.959 46.232C141.567 46.232 142.087 46.02 142.519 45.596C142.951 45.172 143.167 44.64 143.167 44C143.167 43.36 142.951 42.828 142.519 42.404C142.087 41.972 141.567 41.756 140.959 41.756C140.359 41.756 139.843 41.972 139.411 42.404C138.979 42.828 138.763 43.36 138.763 44C138.763 44.64 138.975 45.172 139.399 45.596ZM147.956 41.828V47H147.08V41.828H144.884V41H150.152V41.828H147.956ZM156.485 47H155.609V44.396H151.925V47H151.049V41H151.925V43.556H155.609V41H156.485V47ZM158.929 42.944H160.993C161.849 42.944 162.457 43.14 162.817 43.532C163.185 43.924 163.369 44.4 163.369 44.96C163.369 45.224 163.329 45.468 163.249 45.692C163.177 45.916 163.057 46.132 162.889 46.34C162.721 46.54 162.473 46.7 162.145 46.82C161.825 46.94 161.441 47 160.993 47H158.053V41H158.929V42.944ZM164.989 47H164.113V41H164.989V47ZM158.917 46.184H161.065C162.017 46.184 162.493 45.776 162.493 44.96C162.493 44.16 162.017 43.76 161.065 43.76H158.917V46.184ZM168.861 44.612L166.881 47H165.861L168.369 43.904L165.993 41H167.001L168.897 43.22L170.757 41H171.765L169.389 43.94L171.897 47H170.877L168.861 44.612ZM179.115 40.916C179.963 40.916 180.675 41.216 181.251 41.816C181.827 42.416 182.115 43.144 182.115 44C182.115 44.856 181.827 45.584 181.251 46.184C180.675 46.776 179.963 47.072 179.115 47.072C178.635 47.072 178.195 46.956 177.795 46.724C177.403 46.484 177.103 46.168 176.895 45.776V49.208H176.019V41H176.643L176.679 42.356C176.911 41.924 177.243 41.576 177.675 41.312C178.107 41.048 178.587 40.916 179.115 40.916ZM179.043 41.756C178.435 41.756 177.915 41.972 177.483 42.404C177.051 42.828 176.835 43.36 176.835 44C176.835 44.64 177.051 45.176 177.483 45.608C177.915 46.032 178.435 46.244 179.043 46.244C179.643 46.244 180.159 46.032 180.591 45.608C181.023 45.176 181.239 44.64 181.239 44C181.239 43.36 181.023 42.828 180.591 42.404C180.159 41.972 179.643 41.756 179.043 41.756ZM189.063 47H188.439L188.403 45.644C188.171 46.076 187.839 46.424 187.407 46.688C186.975 46.944 186.495 47.072 185.967 47.072C185.119 47.072 184.407 46.776 183.831 46.184C183.255 45.584 182.967 44.856 182.967 44C182.967 43.144 183.255 42.416 183.831 41.816C184.407 41.216 185.119 40.916 185.967 40.916C186.487 40.916 186.963 41.048 187.395 41.312C187.835 41.568 188.171 41.912 188.403 42.344L188.439 41H189.063V47ZM184.467 45.596C184.899 46.02 185.419 46.232 186.027 46.232C186.635 46.232 187.155 46.02 187.587 45.596C188.019 45.172 188.235 44.64 188.235 44C188.235 43.36 188.019 42.828 187.587 42.404C187.155 41.972 186.635 41.756 186.027 41.756C185.427 41.756 184.911 41.972 184.479 42.404C184.047 42.828 183.831 43.36 183.831 44C183.831 44.64 184.043 45.172 184.467 45.596ZM193.347 40.916C194.307 40.916 195.095 41.288 195.711 42.032L195.183 42.596C194.671 42.036 194.059 41.756 193.347 41.756C192.739 41.756 192.219 41.972 191.787 42.404C191.363 42.828 191.151 43.36 191.151 44C191.151 44.64 191.363 45.172 191.787 45.596C192.219 46.02 192.739 46.232 193.347 46.232C194.067 46.232 194.679 45.956 195.183 45.404L195.711 45.968C195.095 46.704 194.307 47.072 193.347 47.072C192.491 47.072 191.763 46.772 191.163 46.172C190.571 45.572 190.275 44.848 190.275 44C190.275 43.144 190.575 42.416 191.175 41.816C191.775 41.216 192.499 40.916 193.347 40.916ZM199.254 41.828V47H198.378V41.828H196.182V41H201.45V41.828H199.254ZM205.035 40.916C205.683 40.916 206.239 41.072 206.703 41.384C207.167 41.696 207.511 42.124 207.735 42.668C207.831 42.9 207.887 43.168 207.903 43.472C207.927 43.776 207.907 44.02 207.843 44.204H202.875C202.875 44.836 203.083 45.34 203.499 45.716C203.923 46.084 204.467 46.272 205.131 46.28C205.891 46.28 206.583 46.064 207.207 45.632L207.675 46.16C206.899 46.768 206.051 47.072 205.131 47.072C204.203 47.064 203.447 46.776 202.863 46.208C202.279 45.64 201.987 44.904 201.987 44C201.987 43.128 202.267 42.396 202.827 41.804C203.395 41.212 204.131 40.916 205.035 40.916ZM205.035 41.72C204.443 41.72 203.947 41.904 203.547 42.272C203.155 42.64 202.943 43.088 202.911 43.616H207.051C207.067 43.408 207.023 43.18 206.919 42.932C206.767 42.564 206.527 42.272 206.199 42.056C205.871 41.832 205.483 41.72 205.035 41.72ZM214.588 47H213.712V44.396H210.028V47H209.152V41H210.028V43.556H213.712V41H214.588V47ZM221.544 47H220.68V42.464L216.684 47H216.156V41H217.032V45.536L221.028 41H221.544V47ZM227.013 39.86C226.685 40.156 226.281 40.304 225.801 40.304C225.321 40.304 224.913 40.156 224.577 39.86C224.249 39.556 224.085 39.184 224.085 38.744H224.721C224.721 39.008 224.825 39.228 225.033 39.404C225.241 39.58 225.497 39.668 225.801 39.668C226.105 39.668 226.361 39.58 226.569 39.404C226.785 39.228 226.893 39.008 226.893 38.744H227.517C227.517 39.184 227.349 39.556 227.013 39.86ZM228.501 47H227.637V42.464L223.641 47H223.113V41H223.989V45.536L227.985 41H228.501V47Z" fill="#3B6E31"/>
<path d="M25.492 33H22.996V15.4L14.644 26.024L6.292 15.4V33H3.796V10.6H5.204L14.644 22.632L24.084 10.6H25.492V33ZM47.4655 16.776C49.7482 16.776 51.6895 17.5867 53.2895 19.208C54.8895 20.808 55.6895 22.7387 55.6895 25C55.6895 27.2613 54.8895 29.192 53.2895 30.792C51.6895 32.392 49.7482 33.192 47.4655 33.192C45.1828 33.192 43.2415 32.392 41.6415 30.792C40.0628 29.192 39.2735 27.2613 39.2735 25C39.2735 22.7173 40.0735 20.776 41.6735 19.176C43.2735 17.576 45.2042 16.776 47.4655 16.776ZM47.4335 19.016C45.8335 19.016 44.4575 19.592 43.3055 20.744C42.1535 21.8747 41.5775 23.2933 41.5775 25C41.5775 26.7067 42.1428 28.1253 43.2735 29.256C44.4255 30.3867 45.8122 30.952 47.4335 30.952C49.0548 30.952 50.4415 30.3867 51.5935 29.256C52.7455 28.1253 53.3215 26.7067 53.3215 25C53.3215 23.2933 52.7455 21.8747 51.5935 20.744C50.4415 19.592 49.0548 19.016 47.4335 19.016ZM77.1198 16.776C79.2957 16.776 80.9918 17.448 82.2078 18.792C83.4451 20.136 84.0637 22.0027 84.0637 24.392V33H81.7598V24.488C81.7598 22.6533 81.3118 21.288 80.4158 20.392C79.5411 19.4747 78.3358 19.016 76.7998 19.016C75.1144 19.016 73.7704 19.5707 72.7677 20.68C71.7864 21.7893 71.2957 23.3573 71.2957 25.384V33H68.9597V17H70.6237L70.7517 20.648C71.3491 19.3467 72.2237 18.376 73.3757 17.736C74.5278 17.096 75.7758 16.776 77.1198 16.776ZM117.333 10.6H124.405C127.307 10.6 129.664 11.336 131.477 12.808C133.291 14.28 134.198 16.2853 134.198 18.824C134.198 21.3627 133.291 23.368 131.477 24.84C129.664 26.312 127.307 27.048 124.405 27.048H119.829V33H117.333V10.6ZM119.829 24.712H124.565C126.656 24.712 128.384 24.2213 129.75 23.24C131.136 22.2587 131.83 20.7867 131.83 18.824C131.83 16.8827 131.136 15.4213 129.75 14.44C128.384 13.4373 126.656 12.936 124.565 12.936H119.829V24.712ZM147.267 33V10.6H149.603V33H147.267ZM179.098 33H177.434L177.338 29.384C176.72 30.536 175.834 31.464 174.682 32.168C173.53 32.8507 172.25 33.192 170.842 33.192C168.581 33.192 166.682 32.4027 165.146 30.824C163.61 29.224 162.842 27.2827 162.842 25C162.842 22.7173 163.61 20.776 165.146 19.176C166.682 17.576 168.581 16.776 170.842 16.776C172.229 16.776 173.498 17.128 174.65 17.832C175.824 18.5147 176.72 19.432 177.338 20.584L177.434 17H179.098V33ZM166.842 29.256C167.994 30.3867 169.381 30.952 171.002 30.952C172.624 30.952 174.01 30.3867 175.162 29.256C176.314 28.1253 176.89 26.7067 176.89 25C176.89 23.2933 176.314 21.8747 175.162 20.744C174.01 19.592 172.624 19.016 171.002 19.016C169.402 19.016 168.026 19.592 166.874 20.744C165.722 21.8747 165.146 23.2933 165.146 25C165.146 26.7067 165.712 28.1253 166.842 29.256ZM201.532 16.776C203.708 16.776 205.404 17.448 206.62 18.792C207.858 20.136 208.476 22.0027 208.476 24.392V33H206.172V24.488C206.172 22.6533 205.724 21.288 204.828 20.392C203.954 19.4747 202.748 19.016 201.212 19.016C199.527 19.016 198.183 19.5707 197.18 20.68C196.199 21.7893 195.708 23.3573 195.708 25.384V33H193.372V17H195.036L195.164 20.648C195.762 19.3467 196.636 18.376 197.788 17.736C198.94 17.096 200.188 16.776 201.532 16.776ZM226.31 19.208V33H223.974V19.208H221.638V17H223.974V11.624H226.31V17H228.646V19.208H226.31Z" fill="#3B6E31"/>
</svg>
