<?xml version="1.0" encoding="utf-8"?><svg viewBox="0 0 502.66 502.66" xmlns="http://www.w3.org/2000/svg" xmlns:xlink="http://www.w3.org/1999/xlink"><style>:root>svg{display:none}:root>svg:target{display:block}</style><svg fill="none" viewBox="0 0 40 40" id="cart" xmlns="http://www.w3.org/2000/svg"><g clip-path="url(#aa)"><path d="M33.786 40h-2.95a1.135 1.135 0 110-2.27h2.95a3.95 3.95 0 003.945-3.944V6.214a3.95 3.95 0 00-3.945-3.945H16.747a1.135 1.135 0 010-2.269h17.04A6.22 6.22 0 0140 6.214v27.572A6.22 6.22 0 0133.786 40zm-11.154 0H6.214A6.22 6.22 0 010 33.786V6.214A6.22 6.22 0 016.214 0h2.553a1.135 1.135 0 110 2.27H6.214a3.95 3.95 0 00-3.945 3.944v27.572a3.95 3.95 0 003.945 3.945h16.418a1.135 1.135 0 010 2.269z" fill="#3B6E31"/><path d="M13.928 31.497a1 1 0 100-2 1 1 0 000 2zm13.5 0a1 1 0 100-2 1 1 0 000 2z" stroke="#3B6E31" stroke-width="2.5" stroke-linecap="round" stroke-linejoin="round"/><path d="M10.678 14.714l1.903 8.48c.117.52.42.984.857 1.314.437.33.981.503 1.538.491h11.713c.545 0 1.073-.179 1.498-.505.424-.326.72-.78.837-1.289L31 14.715H10.678z"/><path d="M7 9h2.395l1.283 5.714m-.001 0h0m0 0l1.904 8.48c.117.52.42.984.857 1.314.437.33.981.503 1.538.491h11.713c.545 0 1.073-.179 1.498-.505.424-.326.72-.78.837-1.289L31 14.715H10.678z" stroke="#3B6E31" stroke-width="2.5" stroke-linecap="round" stroke-linejoin="round"/></g><defs><clipPath id="aa"><path fill="#fff" d="M0 0h40v40H0z"/></clipPath></defs></svg><svg fill="none" viewBox="0 0 40 40" id="cart-white" xmlns="http://www.w3.org/2000/svg"><path d="M13.928 31.497a1 1 0 100-2 1 1 0 000 2zm13.5 0a1 1 0 100-2 1 1 0 000 2zM7 9h2.395l1.283 5.714m-.001 0h0m0 0l1.904 8.48c.117.52.42.984.857 1.314.437.33.981.503 1.538.491h11.713c.545 0 1.073-.179 1.498-.505.424-.326.72-.78.837-1.289L31 14.715H10.678z" stroke="#F8F8F8" stroke-width="2" stroke-linecap="round" stroke-linejoin="round"/></svg><svg fill="none" viewBox="0 0 24 24" id="del" xmlns="http://www.w3.org/2000/svg"><path d="M16 6L6 18M6 6l10 12" stroke="#3B6E31" stroke-width="2" stroke-linecap="round" stroke-linejoin="round"/></svg><svg viewBox="0 0 502.664 502.664" id="icon" xmlns="http://www.w3.org/2000/svg"><path d="M153.821 358.226L0 274.337v-46.463l153.821-83.414v54.574L46.636 250.523l107.185 53.431v54.272zm26.273 29.358L282.103 115.08h32.227L212.084 387.584h-31.99zm168.749-29.358v-54.272l107.164-52.999-107.164-52.59v-53.927l153.821 83.522v46.183l-153.821 84.083z"/></svg><svg fill="none" viewBox="0 0 40 41" id="inst" xmlns="http://www.w3.org/2000/svg"><path d="M33.786 40.5h-2.95a1.135 1.135 0 010-2.27h2.95a3.949 3.949 0 003.945-3.944V6.714a3.949 3.949 0 00-3.945-3.945H16.747a1.135 1.135 0 010-2.269h17.04A6.22 6.22 0 0140 6.714v27.572a6.22 6.22 0 01-6.214 6.214zm-11.154 0H6.214A6.22 6.22 0 010 34.286V6.714A6.22 6.22 0 016.214.5h2.553a1.135 1.135 0 010 2.27H6.214a3.95 3.95 0 00-3.945 3.944v27.572a3.95 3.95 0 003.945 3.945h16.418a1.135 1.135 0 010 2.269z" fill="#fff"/><path d="M28.094 8.473H11.906a3.933 3.933 0 00-3.933 3.933v16.188a3.933 3.933 0 003.933 3.933h16.188a3.933 3.933 0 003.933-3.933V12.406a3.933 3.933 0 00-3.933-3.933zM20 26.343a5.842 5.842 0 110-11.685 5.842 5.842 0 010 11.684z" fill="#3B6E31"/><path d="M28.094 33.662H11.906a5.074 5.074 0 01-5.068-5.068V12.406a5.074 5.074 0 015.068-5.068h16.188a5.074 5.074 0 015.068 5.068v16.188a5.074 5.074 0 01-5.068 5.068zM11.906 9.608a2.802 2.802 0 00-2.798 2.798v16.188a2.802 2.802 0 002.798 2.798h16.188a2.802 2.802 0 002.798-2.798V12.406a2.802 2.802 0 00-2.798-2.798H11.906zM20 27.477a6.985 6.985 0 01-6.977-6.977A6.985 6.985 0 0120 13.523a6.985 6.985 0 016.977 6.977A6.985 6.985 0 0120 27.477zm0-11.685a4.713 4.713 0 00-4.707 4.708A4.713 4.713 0 0020 25.208a4.713 4.713 0 004.708-4.708A4.713 4.713 0 0020 15.792z" fill="#fff"/><path d="M27.063 14.95a1.598 1.598 0 100-3.196 1.598 1.598 0 000 3.195z" fill="#fff"/></svg><svg fill="none" viewBox="0 0 40 40" id="line" xmlns="http://www.w3.org/2000/svg"><path d="M33.786 40h-2.95a1.135 1.135 0 110-2.27h2.95a3.95 3.95 0 003.945-3.944V6.214a3.95 3.95 0 00-3.945-3.945H16.747a1.135 1.135 0 010-2.269h17.04A6.22 6.22 0 0140 6.214v27.572A6.22 6.22 0 0133.786 40zm-11.154 0H6.214A6.22 6.22 0 010 33.786V6.214A6.22 6.22 0 016.214 0h2.553a1.135 1.135 0 110 2.27H6.214a3.95 3.95 0 00-3.945 3.944v27.572a3.95 3.95 0 003.945 3.945h16.418a1.135 1.135 0 010 2.269z" fill="#3B6E31"/></svg><svg fill="none" viewBox="0 0 40 40" id="search" xmlns="http://www.w3.org/2000/svg"><g clip-path="url(#ga)"><path d="M33.786 40h-2.95a1.135 1.135 0 110-2.27h2.95a3.95 3.95 0 003.945-3.944V6.214a3.95 3.95 0 00-3.945-3.945H16.747a1.135 1.135 0 010-2.269h17.04A6.22 6.22 0 0140 6.214v27.572A6.22 6.22 0 0133.786 40zm-11.154 0H6.214A6.22 6.22 0 010 33.786V6.214A6.22 6.22 0 016.214 0h2.553a1.135 1.135 0 110 2.27H6.214a3.95 3.95 0 00-3.945 3.944v27.572a3.95 3.95 0 003.945 3.945h16.418a1.135 1.135 0 010 2.269z" fill="#3B6E31"/><path d="M18.667 29.333c5.89 0 10.666-4.775 10.666-10.666S24.558 8 18.667 8 8 12.776 8 18.667c0 5.89 4.776 10.666 10.667 10.666z" fill="var(--color1)" stroke="#3B6E31" stroke-width="2.5" stroke-linecap="round" stroke-linejoin="round"/><path d="M32 32l-5.733-5.733" stroke="#3B6E31" stroke-width="2.5" stroke-linecap="round" stroke-linejoin="round"/></g><defs><clipPath id="ga"><path fill="#fff" d="M0 0h40v40H0z"/></clipPath></defs></svg><svg fill="none" viewBox="0 0 40 40" id="tg" xmlns="http://www.w3.org/2000/svg"><g clip-path="url(#ha)"><path d="M33.786 40h-2.95a1.135 1.135 0 110-2.27h2.95a3.95 3.95 0 003.945-3.944V6.214a3.95 3.95 0 00-3.945-3.945H16.747a1.135 1.135 0 010-2.269h17.04A6.22 6.22 0 0140 6.214v27.572A6.22 6.22 0 0133.786 40zm-11.154 0H6.214A6.22 6.22 0 010 33.786V6.214A6.22 6.22 0 016.214 0h2.553a1.135 1.135 0 110 2.27H6.214a3.95 3.95 0 00-3.945 3.944v27.572a3.95 3.95 0 003.945 3.945h16.418a1.135 1.135 0 010 2.269z" fill="#3B6E31"/><path d="M31.023 9.43L7.89 18.443c-.75.292-.704 1.367.067 1.594l5.284 1.56 1.643 6.15a1.01 1.01 0 001.683.403l3.252-3.103 6.896 5.364c.73.535 1.77.137 1.955-.748l3.95-18.883a1.19 1.19 0 00-1.598-1.352z" fill="var(--color1)"/><path d="M27.45 31.789h-.001a2.358 2.358 0 01-1.429-.482l-6.124-4.763-2.533 2.417a2.123 2.123 0 01-1.512.628 2.138 2.138 0 01-2.063-1.548l-1.478-5.535-4.673-1.38a1.953 1.953 0 01-1.416-1.813 1.953 1.953 0 011.258-1.926l23.132-9.015a2.318 2.318 0 012.652.703 2.31 2.31 0 01.468 1.939l-3.95 18.882a2.392 2.392 0 01-2.332 1.893zm-.055-2.287a.094.094 0 00.054.017c.01 0 .093-.002.111-.088l3.95-18.882c.004-.021.002-.03-.009-.043-.011-.014-.03-.026-.042-.026a.069.069 0 00-.024.006L9.097 19.191l4.466 1.32a1.134 1.134 0 01.775.795l1.576 5.9 3.123-2.98a1.134 1.134 0 011.48-.074l6.878 5.35z" fill="#3B6E31"/><path d="M17.162 28.141c.036.116 1.336-1.51 1.35-1.63l-.583-2.854a1.041 1.041 0 01.354-1.009l10.688-8.88c.257-.228-.042-.63-.334-.449L16.07 20.984a.837.837 0 00-.386.872l1.478 6.285z" fill="#3B6E31"/></g><defs><clipPath id="ha"><path fill="#fff" d="M0 0h40v40H0z"/></clipPath></defs></svg><svg fill="none" viewBox="0 0 40 41" id="vk" xmlns="http://www.w3.org/2000/svg"><g clip-path="url(#ia)"><path d="M33.786 40.5h-2.95a1.135 1.135 0 010-2.27h2.95a3.949 3.949 0 003.945-3.944V6.714a3.95 3.95 0 00-3.945-3.945H16.747a1.135 1.135 0 110-2.269h17.04A6.22 6.22 0 0140 6.714v27.572a6.22 6.22 0 01-6.214 6.214zm-11.154 0H6.214A6.22 6.22 0 010 34.286V6.714A6.22 6.22 0 016.214.5h2.553a1.135 1.135 0 010 2.27H6.214a3.95 3.95 0 00-3.945 3.944v27.572a3.95 3.95 0 003.945 3.945h16.418a1.135 1.135 0 010 2.269z" fill="#fff"/><path d="M32 28.356c-.922 0-2.05-.026-2.53-.037l-.265-.005c-.771-.003-1.435-.268-1.973-.786-.437-.42-.86-.88-1.269-1.324-.231-.251-.47-.511-.712-.764a5.958 5.958 0 00-.7-.636c-.297-.226-.612-.345-.912-.345-.497 0-.905.312-1.122.856-.248.627-.439 2.16-.446 2.254-.03.43-.276.651-.752.677a16.82 16.82 0 01-.91.026c-1.878 0-3.464-.36-4.848-1.102-1.4-.75-2.654-1.847-3.836-3.356-1.493-1.906-2.838-4.115-4.36-7.163-.073-.146-1.24-2.637-1.353-2.918-.032-.13-.05-.344.062-.416.084-.008.34-.021 1.107-.021 1.277 0 3.157.038 3.26.042.527.029.814.236 1.018.739.891 2.201 1.953 4.058 3.245 5.675.196.247.452.481.74.679.202.138.419.212.627.212.395 0 .722-.253.872-.677.173-.483.312-1.37.32-1.841a36.924 36.924 0 00-.065-3.065c-.058-1.069-.567-1.708-1.552-1.947.3-.324.708-.408 1.332-.44.35-.02.732-.029 1.169-.029.406 0 .821.008 1.223.015.282.006.564.01.846.014.465.004.868.045 1.233.124.223.049.528.175.618.712.046.272.066.536.06.785-.011.512-.028 1.032-.045 1.535-.024.724-.049 1.472-.057 2.21a6.985 6.985 0 00.145 1.57c.135.615.505.982.987.982.203 0 .514-.071.844-.413.522-.543 1.027-1.174 1.635-2.047.795-1.14 1.48-2.468 2.16-4.182.227-.574.286-.614.892-.615a950.331 950.331 0 014.484 0c.266.001.48.029.657.084.12.039.224.095.166.349-.212.943-.757 1.767-1.252 2.465-.6.848-1.232 1.698-1.843 2.521-.322.433-.643.867-.962 1.301a5.28 5.28 0 00-.354.56c-.453.82-.38 1.395.256 2.052.338.349.69.692 1.03 1.024.48.468.976.953 1.432 1.451.576.631 1.083 1.29 1.507 1.96.196.31.252.61.153.822-.095.206-.338.346-.686.396-.1.014-.4.037-1.277.037z" fill="#3B6E31"/><path d="M32 29.491a121.198 121.198 0 01-2.802-.042 3.921 3.921 0 01-2.753-1.103 31.252 31.252 0 01-1.317-1.374l-.014-.016c-.224-.242-.454-.493-.683-.732a4.856 4.856 0 00-.567-.517.567.567 0 00-.213-.112.45.45 0 00-.08.139c-.153.389-.333 1.576-.369 1.929-.076 1-.773 1.659-1.82 1.716-.334.018-.66.028-.972.028-2.07 0-3.832-.405-5.385-1.237-1.541-.825-2.913-2.021-4.193-3.656-1.542-1.968-2.924-4.237-4.482-7.356-.066-.133-1.26-2.672-1.392-3.004a1.03 1.03 0 01-.048-.152c-.167-.683.042-1.31.546-1.637.153-.1.328-.16.51-.177.07-.007.282-.027 1.214-.027 1.309 0 3.19.04 3.301.043l.022.001c.964.052 1.639.538 2.007 1.445.85 2.1 1.857 3.864 3.08 5.394.093.117.212.233.345.34a6.77 6.77 0 00.193-1.28 35.918 35.918 0 00-.063-2.983c-.035-.636-.25-.799-.688-.905a1.134 1.134 0 01-.565-1.873c.59-.639 1.361-.764 2.105-.803.37-.02.772-.03 1.23-.03.419 0 .838.008 1.244.015l.836.014a7.116 7.116 0 011.464.15c.805.175 1.35.77 1.495 1.632.058.342.083.68.076 1-.012.508-.029 1.023-.045 1.52l-.001.026c-.024.724-.049 1.463-.057 2.186-.005.461.03.882.106 1.252.45-.479.9-1.047 1.44-1.823.743-1.065 1.39-2.32 2.035-3.95.4-1.007.872-1.33 1.946-1.332a746.34 746.34 0 014.489 0c.384.001.71.046.997.137.731.233 1.105.909.93 1.68-.259 1.147-.875 2.084-1.433 2.871-.606.856-1.24 1.71-1.853 2.535-.323.433-.644.868-.964 1.303-.089.12-.177.26-.277.441-.221.4-.193.429.08.71.327.338.672.675 1.007 1.001.494.483 1 .977 1.477 1.498.621.68 1.169 1.393 1.628 2.118.406.642.488 1.336.225 1.905-.151.329-.555.901-1.557 1.043-.15.021-.461.049-1.436.049zm-8.361-6.167c.55 0 1.104.2 1.6.578.275.209.548.456.833.754.243.255.481.513.711.763l.015.017c.397.431.807.877 1.22 1.275.326.313.715.466 1.192.469l.286.005c.484.011 1.6.037 2.503.037.21 0 .382-.002.523-.004a13.343 13.343 0 00-1.059-1.312 35.148 35.148 0 00-1.382-1.4c-.35-.341-.706-.69-1.056-1.05-.99-1.021-1.13-2.13-.434-3.39a6.59 6.59 0 01.43-.682c.322-.438.645-.873.968-1.308a139.16 139.16 0 001.828-2.5c.242-.341.498-.716.705-1.11a820.27 820.27 0 00-3.712.002c-.7 1.749-1.413 3.122-2.243 4.312-.645.924-1.184 1.598-1.75 2.185-.606.63-1.237.761-1.66.761-1.022 0-1.844-.735-2.096-1.872a8.124 8.124 0 01-.171-1.828c.009-.747.033-1.498.058-2.224v-.035c.017-.492.034-1.001.045-1.498a2.84 2.84 0 00-.021-.406 5.448 5.448 0 00-.767-.055c-.286-.003-.572-.009-.857-.014-.42-.008-.86-.016-1.278-.015.148.362.236.77.26 1.22.064 1.184.09 1.957.067 3.148-.01.57-.168 1.592-.386 2.201-.313.88-1.057 1.43-1.94 1.43-.439 0-.878-.143-1.27-.412-.38-.26-.72-.574-.986-.908-1.36-1.702-2.475-3.651-3.408-5.955a1.052 1.052 0 00-.013-.031h-.003c-.173-.005-1.639-.034-2.814-.04.345.743.747 1.598.804 1.714 1.486 2.976 2.793 5.125 4.237 6.968 1.082 1.383 2.22 2.382 3.478 3.056 1.215.651 2.626.967 4.313.967.186 0 .378-.003.575-.01.074-.559.239-1.626.478-2.23.392-.985 1.206-1.573 2.177-1.573z" fill="#fff"/></g><defs><clipPath id="ia"><path fill="#fff" transform="translate(0 .5)" d="M0 0h40v40H0z"/></clipPath></defs></svg><svg fill="none" viewBox="0 0 40 40" id="wa" xmlns="http://www.w3.org/2000/svg"><g clip-path="url(#ja)"><path fill-rule="evenodd" clip-rule="evenodd" d="M20.005 32.98c-1.568 0-3.098-.277-4.553-.823l-5.497.792a1.135 1.135 0 01-1.287-1.27l.574-4.429a12.874 12.874 0 01-2.21-7.245c0-7.154 5.82-12.974 12.973-12.974 7.154 0 12.974 5.82 12.974 12.974S27.16 32.98 20.005 32.98zm-3.996-3.041a1.133 1.133 0 00-.586-.07l-4.313.62.439-3.384a1.134 1.134 0 00-.208-.813 10.623 10.623 0 01-2.04-6.287C9.3 14.103 14.101 9.3 20.004 9.3c5.902 0 10.704 4.803 10.704 10.705 0 5.903-4.802 10.705-10.704 10.705-1.38 0-2.725-.26-3.996-.771z" fill="#3B6E31"/><path d="M15.585 29.857c.145 0 .289.027.424.082 1.27.511 2.615.77 3.996.77 5.902 0 10.704-4.801 10.704-10.704 0-5.902-4.802-10.705-10.704-10.705C14.102 9.3 9.3 14.103 9.3 20.005c0 2.277.706 4.451 2.041 6.288.17.234.245.525.208.813l-.439 3.384 4.313-.622a1.11 1.11 0 01.162-.011z" fill="var(--color1)"/><path d="M33.786 40h-2.95a1.135 1.135 0 110-2.27h2.95a3.95 3.95 0 003.945-3.944V6.214a3.95 3.95 0 00-3.945-3.945H16.747a1.135 1.135 0 010-2.269h17.04A6.22 6.22 0 0140 6.214v27.572A6.22 6.22 0 0133.786 40zm-11.154 0H6.214A6.22 6.22 0 010 33.786V6.214A6.22 6.22 0 016.214 0h2.553a1.135 1.135 0 110 2.27H6.214a3.95 3.95 0 00-3.945 3.944v27.572a3.95 3.95 0 003.945 3.945h16.418a1.135 1.135 0 010 2.269z" fill="#3B6E31"/><path d="M22.53 21.88l-.76.761c-.065-.035-.136-.07-.206-.11-.654-.362-1.46-.769-2.4-1.71-.944-.942-1.353-1.75-1.715-2.402-.04-.07-.055-.114-.09-.178l.713-.671.074-.074a1.448 1.448 0 000-2.048l-1.115-1.115a1.448 1.448 0 00-2.056.008l-.297.302a3.377 3.377 0 00-.478.842 3.466 3.466 0 00-.213.854c-.272 2.246.27 3.815 3.055 6.6 3.85 3.85 6.449 3.1 6.583 3.084a3.714 3.714 0 001.716-.716l.302-.297a1.448 1.448 0 00.009-2.057l-1.073-1.072a1.448 1.448 0 00-2.048 0z" fill="#CFF09E"/><path d="M22.936 27.226c-1.465 0-3.816-.604-6.696-3.484-2.86-2.862-3.714-4.763-3.38-7.534.04-.37.132-.738.279-1.125l.004-.011c.16-.41.376-.79.641-1.128.026-.034.055-.066.085-.097l.297-.302a2.564 2.564 0 011.841-.771c.69 0 1.338.269 1.826.756l1.116 1.116c.487.487.756 1.136.756 1.826 0 .69-.269 1.338-.756 1.826l-.074.074a.833.833 0 01-.026.025l-.073.07a7.3 7.3 0 001.19 1.552 7.182 7.182 0 001.604 1.218l.159-.159a2.566 2.566 0 011.826-.756c.69 0 1.338.268 1.826.756l1.073 1.073c.491.49.76 1.143.757 1.837a2.565 2.565 0 01-.772 1.831l-.302.297a1.15 1.15 0 01-.095.083 4.506 4.506 0 01-1.13.644c-.41.16-.774.258-1.113.302a4.294 4.294 0 01-.863.081zm-7.678-11.332a2.344 2.344 0 00-.144.57l-.001.011c-.219 1.807.124 3.054 2.731 5.662 2.454 2.453 4.244 2.82 5.092 2.82.23 0 .371-.028.431-.04.044-.01.088-.016.132-.021.15-.018.35-.075.591-.168.18-.07.35-.165.506-.28l.252-.247a.309.309 0 00.093-.222.308.308 0 00-.091-.223l-1.073-1.073a.307.307 0 00-.222-.092.308.308 0 00-.222.092l-.76.76a1.134 1.134 0 01-1.345.195l-.068-.036a5.849 5.849 0 01-.152-.082l-.151-.083c-.64-.352-1.517-.834-2.496-1.813-.987-.987-1.471-1.868-1.825-2.51l-.078-.142a2.47 2.47 0 01-.082-.16l-.012-.024a1.132 1.132 0 01.217-1.374l.763-.72a.307.307 0 00.092-.222.308.308 0 00-.092-.222l-1.116-1.115a.306.306 0 00-.221-.092.308.308 0 00-.224.094l-.247.25a2.273 2.273 0 00-.278.507z" fill="#3B6E31"/></g><defs><clipPath id="ja"><path fill="#fff" d="M0 0h40v40H0z"/></clipPath></defs></svg><svg fill="none" viewBox="0 0 40 41" id="yt" xmlns="http://www.w3.org/2000/svg"><path d="M33.786 40.5h-2.95a1.135 1.135 0 010-2.27h2.95a3.949 3.949 0 003.945-3.944V6.714a3.949 3.949 0 00-3.945-3.945H16.747a1.135 1.135 0 010-2.269h17.04A6.22 6.22 0 0140 6.714v27.572a6.22 6.22 0 01-6.214 6.214zm-11.154 0H6.214A6.22 6.22 0 010 34.286V6.714A6.22 6.22 0 016.214.5h2.553a1.135 1.135 0 110 2.27H6.214a3.95 3.95 0 00-3.945 3.944v27.572a3.95 3.95 0 003.945 3.945h16.418a1.135 1.135 0 010 2.269z" fill="#fff"/><path d="M29.212 33.116H10.788a3.268 3.268 0 01-3.269-3.268v-6.51a3.268 3.268 0 013.269-3.27h18.424a3.268 3.268 0 013.269 3.27v6.51a3.269 3.269 0 01-3.269 3.268z" fill="#fff"/><path d="M29.212 34.25H10.788a4.408 4.408 0 01-4.403-4.402v-6.51a4.408 4.408 0 014.403-4.404h18.424a4.408 4.408 0 014.404 4.403v6.51a4.408 4.408 0 01-4.404 4.404zM10.788 21.204a2.136 2.136 0 00-2.134 2.134v6.51c0 1.177.957 2.134 2.134 2.134h18.424a2.136 2.136 0 002.134-2.133v-6.51a2.136 2.136 0 00-2.134-2.135H10.788zm3.504-3.86v-3.27c0-.241-.033-.428-.133-.742l-1.62-5.444h2.053s.783 3.514.966 3.514c.18 0 .95-3.518.95-3.518l1.989.003-1.686 5.42c-.06.211-.134.617-.134.793v3.244h-2.385zm6.28.143c-1.29 0-2.157-.781-2.157-1.943V11.68c0-1.154.867-1.93 2.157-1.93 1.31 0 2.156.784 2.156 1.997v3.797c0 1.162-.866 1.943-2.157 1.943zm0-5.882c-.213 0-.357.165-.357.41v3.18c0 .303.184.41.357.41.172 0 .355-.107.355-.41v-3.18c0-.238-.15-.41-.355-.41zm5.411 5.882l-.243-.373a.077.077 0 00-.06-.035.078.078 0 00-.064.027c-.116.135-.413.38-1.034.38-.463 0-1.114-.387-1.114-1.247V9.75h1.613v5.07c0 .282.185.41.356.41.165 0 .356-.107.356-.41V9.75h1.668v7.736h-1.478z" fill="#fff"/><path d="M12.61 30.769v-6.222l-.006-.169H11.14v-1.787h4.686l-.006 1.787h-1.475l.005.192v6.199h-1.74zm6.233.142l-.204-.3a.084.084 0 00-.135-.004c-.097.121-.335.304-.896.304-.396 0-.954-.332-.954-1.07v-5.642h1.372v4.405c0 .258.17.376.328.376.164 0 .33-.116.33-.376V24.2H20.1v6.712h-1.258zm4.479 0c-.546 0-.672-.175-.772-.254a.065.065 0 00-.087.007l-.24.247h-1.37v-8.637h1.44v2.016c0 .162.092.235.178.235.082 0 .13-.049.205-.123.139-.139.318-.203.564-.203.357 0 1.188.204 1.188 2.096v2.438c0 1.445-.372 2.178-1.106 2.178zm-.896-1.601c.059.07.156.101.231.101.088 0 .294-.035.294-.364V26.12c0-.217-.118-.363-.294-.363-.207 0-.364.191-.364.445v2.787c0 .136.045.243.133.32zm4.441 1.601c-1.138 0-1.817-.775-1.817-2.073v-2.893c0-1.289 1.004-1.746 1.864-1.746 1.328 0 1.933 1.044 1.933 2.015v.9h-2.126l.004.01v1.83c0 .294.17.4.329.4s.328-.137.328-.388v-.542l1.478-.004-.036.698c0 1.482-1.064 1.793-1.957 1.793zm.175-5.54c-.158 0-.317.12-.317.388v.583c0 .11.095.2.212.2.287 0 .445 0 .445-.2 0-.726 0-.97-.34-.97z" fill="#3B6E31"/></svg></svg>